<?xml version="1.0" encoding="UTF-8" standalone="no"?>
<!DOCTYPE svg PUBLIC "-//W3C//DTD SVG 1.1//EN"
 "http://www.w3.org/Graphics/SVG/1.1/DTD/svg11.dtd">
<!-- Generated by graphviz version 2.40.1 (20161225.0304)
 -->
<!-- Title: first Pages: 1 -->
<svg width="349pt" height="265pt"
 viewBox="0.00 0.00 349.07 264.80" xmlns="http://www.w3.org/2000/svg" xmlns:xlink="http://www.w3.org/1999/xlink">
<g id="graph0" class="graph" transform="scale(1 1) rotate(0) translate(4 260.8)">
<title>first</title>
<polygon fill="#ffffff" stroke="transparent" points="-4,4 -4,-260.8 345.0668,-260.8 345.0668,4 -4,4"/>
<!-- aa -->
<g id="node1" class="node">
<title>aa</title>
<polygon fill="none" stroke="#000000" points="27.7326,-90 -.2346,-72 27.7326,-54 55.6999,-72 27.7326,-90"/>
<text text-anchor="middle" x="27.7326" y="-67.8" font-family="Times,serif" font-size="14.00" fill="#000000">aa</text>
</g>
<!-- bb -->
<g id="node2" class="node">
<title>bb</title>
<polygon fill="none" stroke="#000000" points="146.4653,-90 92.4653,-90 92.4653,-54 146.4653,-54 146.4653,-90"/>
<text text-anchor="middle" x="119.4653" y="-67.8" font-family="Times,serif" font-size="14.00" fill="#000000">bb</text>
</g>
<!-- aa&#45;&gt;bb -->
<g id="edge1" class="edge">
<title>aa&#45;&gt;bb</title>
<path fill="none" stroke="#000000" d="M55.7539,-72C64.0854,-72 73.3476,-72 82.1709,-72"/>
<polygon fill="#000000" stroke="#000000" points="82.2451,-75.5001 92.2451,-72 82.2451,-68.5001 82.2451,-75.5001"/>
</g>
<!-- cc -->
<g id="node3" class="node">
<title>cc</title>
<ellipse fill="none" stroke="#000000" cx="215.6799" cy="-32" rx="27" ry="18"/>
<text text-anchor="middle" x="215.6799" y="-27.8" font-family="Times,serif" font-size="14.00" fill="#000000">cc</text>
</g>
<!-- bb&#45;&gt;cc -->
<g id="edge2" class="edge">
<title>bb&#45;&gt;cc</title>
<path fill="none" stroke="#000000" d="M146.5225,-60.7513C158.0131,-55.9742 171.4996,-50.3674 183.4968,-45.3797"/>
<polygon fill="#000000" stroke="#000000" points="184.8423,-48.6108 192.7325,-41.5401 182.155,-42.1472 184.8423,-48.6108"/>
</g>
<!-- dd -->
<g id="node4" class="node">
<title>dd</title>
<ellipse fill="none" stroke="#000000" cx="119.4653" cy="-18" rx="27" ry="18"/>
<text text-anchor="middle" x="119.4653" y="-13.8" font-family="Times,serif" font-size="14.00" fill="#000000">dd</text>
</g>
<!-- dd&#45;&gt;cc -->
<g id="edge3" class="edge">
<title>dd&#45;&gt;cc</title>
<path fill="none" stroke="#000000" d="M146.0111,-21.8626C156.2118,-23.3469 168.0433,-25.0685 179.0286,-26.6669"/>
<polygon fill="#000000" stroke="#000000" points="178.821,-30.1735 189.2208,-28.15 179.829,-23.2465 178.821,-30.1735"/>
</g>
<!-- A -->
<g id="node5" class="node">
<title>A</title>
<ellipse fill="none" stroke="#000000" cx="27.7326" cy="-126" rx="27" ry="18"/>
<text text-anchor="middle" x="27.7326" y="-121.8" font-family="Times,serif" font-size="14.00" fill="#000000">A</text>
</g>
<!-- B -->
<g id="node6" class="node">
<title>B</title>
<ellipse fill="none" stroke="#000000" cx="119.4653" cy="-126" rx="27" ry="18"/>
<text text-anchor="middle" x="119.4653" y="-121.8" font-family="Times,serif" font-size="14.00" fill="#000000">B</text>
</g>
<!-- A&#45;&gt;B -->
<g id="edge4" class="edge">
<title>A&#45;&gt;B</title>
<path fill="none" stroke="#00ff00" d="M54.7593,-126C63.3605,-126 73.0316,-126 82.2233,-126"/>
<polygon fill="#00ff00" stroke="#00ff00" points="82.3148,-129.5001 92.3148,-126 82.3148,-122.5001 82.3148,-129.5001"/>
</g>
<!-- C -->
<g id="node7" class="node">
<title>C</title>
<ellipse fill="none" stroke="#000000" cx="215.6799" cy="-126" rx="27" ry="18"/>
<text text-anchor="middle" x="215.6799" y="-121.8" font-family="Times,serif" font-size="14.00" fill="#000000">C</text>
</g>
<!-- B&#45;&gt;C -->
<g id="edge5" class="edge">
<title>B&#45;&gt;C</title>
<path fill="none" stroke="#00ff00" d="M146.5225,-126C156.3605,-126 167.6614,-126 178.2382,-126"/>
<polygon fill="#00ff00" stroke="#00ff00" points="178.4925,-129.5001 188.4924,-126 178.4924,-122.5001 178.4925,-129.5001"/>
</g>
<!-- S -->
<g id="node8" class="node">
<title>S</title>
<ellipse fill="none" stroke="#000000" cx="119.4653" cy="-200" rx="18" ry="18"/>
<ellipse fill="none" stroke="#000000" cx="119.4653" cy="-200" rx="22" ry="22"/>
<text text-anchor="middle" x="119.4653" y="-195.8" font-family="Times,serif" font-size="14.00" fill="#000000">S</text>
</g>
<!-- S&#45;&gt;S -->
<g id="edge8" class="edge">
<title>S&#45;&gt;S</title>
<path fill="none" stroke="#000000" d="M111.459,-220.5808C110.3512,-230.8447 113.02,-240 119.4653,-240 123.5943,-240 126.1735,-236.2427 127.2027,-230.8436"/>
<polygon fill="#000000" stroke="#000000" points="130.7084,-230.6691 127.4716,-220.5808 123.7108,-230.4857 130.7084,-230.6691"/>
<text text-anchor="middle" x="119.4653" y="-244.2" font-family="Times,serif" font-size="14.00" fill="#000000">a</text>
</g>
<!-- q1 -->
<g id="node10" class="node">
<title>q1</title>
<ellipse fill="none" stroke="#000000" cx="215.6799" cy="-191" rx="20.8887" ry="20.8887"/>
<text text-anchor="middle" x="215.6799" y="-186.8" font-family="Times,serif" font-size="14.00" fill="#000000">q1</text>
</g>
<!-- S&#45;&gt;q1 -->
<g id="edge7" class="edge">
<title>S&#45;&gt;q1</title>
<path fill="none" stroke="#000000" d="M141.7807,-197.9126C154.521,-196.7209 170.6877,-195.2086 184.6493,-193.9026"/>
<polygon fill="#000000" stroke="#000000" points="185.1722,-197.3691 194.8028,-192.9529 184.5202,-190.3995 185.1722,-197.3691"/>
<text text-anchor="middle" x="167.5726" y="-200.2" font-family="Times,serif" font-size="14.00" fill="#000000">a</text>
</g>
<!-- qi -->
<g id="node9" class="node">
<title>qi</title>
<ellipse fill="#000000" stroke="#000000" cx="27.7326" cy="-200" rx="1.8" ry="1.8"/>
</g>
<!-- qi&#45;&gt;S -->
<g id="edge6" class="edge">
<title>qi&#45;&gt;S</title>
<path fill="none" stroke="#000000" d="M29.6486,-200C37.0227,-200 64.2858,-200 86.86,-200"/>
<polygon fill="#000000" stroke="#000000" points="87.135,-203.5001 97.1349,-200 87.1349,-196.5001 87.135,-203.5001"/>
</g>
<!-- q1&#45;&gt;S -->
<g id="edge9" class="edge">
<title>q1&#45;&gt;S</title>
<path fill="none" stroke="#000000" d="M197.7852,-180.4365C188.0045,-175.9419 175.6394,-172.3248 164.4653,-175.2 158.4882,-176.738 152.455,-179.2561 146.8326,-182.1122"/>
<polygon fill="#000000" stroke="#000000" points="144.8711,-179.1985 137.8407,-187.1246 148.2794,-185.3127 144.8711,-179.1985"/>
<text text-anchor="middle" x="167.5726" y="-180.2" font-family="Times,serif" font-size="14.00" fill="#000000">a</text>
</g>
<!-- q2 -->
<g id="node11" class="node">
<title>q2</title>
<ellipse fill="none" stroke="#000000" cx="320.3733" cy="-191" rx="20.8887" ry="20.8887"/>
<text text-anchor="middle" x="320.3733" y="-186.8" font-family="Times,serif" font-size="14.00" fill="#000000">q2</text>
</g>
<!-- q1&#45;&gt;q2 -->
<g id="edge10" class="edge">
<title>q1&#45;&gt;q2</title>
<path fill="none" stroke="#000000" d="M236.6146,-191C251.7359,-191 272.4066,-191 289.4295,-191"/>
<polygon fill="#000000" stroke="#000000" points="289.475,-194.5001 299.475,-191 289.4749,-187.5001 289.475,-194.5001"/>
<text text-anchor="middle" x="271.1799" y="-195.2" font-family="Times,serif" font-size="14.00" fill="#000000">ddb</text>
</g>
<!-- q2&#45;&gt;q1 -->
<g id="edge11" class="edge">
<title>q2&#45;&gt;q1</title>
<path fill="none" stroke="#000000" d="M303.0189,-179.3161C296.5978,-175.643 289.0758,-172.0619 281.6799,-170.2 268.7553,-166.9463 254.6381,-170.4186 242.7892,-175.3986"/>
<polygon fill="#000000" stroke="#000000" points="240.9864,-172.3796 233.4455,-179.8218 243.9815,-178.7065 240.9864,-172.3796"/>
<text text-anchor="middle" x="271.1799" y="-175.2" font-family="Times,serif" font-size="14.00" fill="#000000">b</text>
</g>
<!-- q2&#45;&gt;q2 -->
<g id="edge12" class="edge">
<title>q2&#45;&gt;q2</title>
<path fill="none" stroke="#000000" d="M311.7447,-210.1121C310.2784,-220.3586 313.1546,-229.6935 320.3733,-229.6935 324.9979,-229.6935 327.8402,-225.8624 328.9004,-220.4149"/>
<polygon fill="#000000" stroke="#000000" points="332.4031,-220.1462 329.002,-210.1121 325.4034,-220.0771 332.4031,-220.1462"/>
<text text-anchor="middle" x="320.3733" y="-233.8935" font-family="Times,serif" font-size="14.00" fill="#000000">b</text>
</g>
</g>
</svg>
